<?xml version="1.0" standalone="no"?>
<!DOCTYPE svg PUBLIC "-//W3C//DTD SVG 20010904//EN"
 "http://www.w3.org/TR/2001/REC-SVG-20010904/DTD/svg10.dtd">
<svg version="1.0" xmlns="http://www.w3.org/2000/svg"
 width="500.000000pt" height="497.000000pt" viewBox="0 0 500.000000 497.000000"
 preserveAspectRatio="xMidYMid meet">

<g transform="translate(0.000000,497.000000) scale(0.100000,-0.100000)"
fill="#000000" stroke="none">
<path d="M0 2480 l0 -2480 2495 0 2495 0 0 2480 0 2480 -2495 0 -2495 0 0
-2480z m2623 792 c88 -46 150 -120 167 -198 7 -31 7 -32 -21 -24 -16 5 -29 6
-29 3 0 -3 30 -36 68 -72 86 -85 126 -165 149 -301 21 -123 11 -200 -42 -308
-69 -138 -201 -236 -355 -262 -250 -42 -493 128 -546 382 -28 133 3 326 66
405 12 15 20 41 20 62 0 45 21 125 44 170 26 50 104 123 159 149 98 46 228 44
320 -6z m377 -242 c0 -5 -5 -10 -11 -10 -5 0 -7 5 -4 10 3 6 8 10 11 10 2 0 4
-4 4 -10z m-102 -1092 c7 -7 12 -24 12 -38 0 -14 -5 -31 -12 -38 -28 -28 -88
-2 -88 38 0 40 60 66 88 38z m779 -380 c23 -24 28 -38 28 -79 0 -44 -4 -54
-33 -80 -64 -57 -159 -31 -183 51 -33 110 108 191 188 108z m-2616 16 c19 -24
-1 -48 -47 -55 -38 -6 -38 -6 -6 -8 60 -2 93 -68 57 -115 -21 -28 -123 -36
-141 -11 -23 31 -1 55 54 56 l47 2 -44 7 c-25 4 -50 15 -58 26 -18 24 -10 84
14 101 25 19 108 17 124 -3z m87 4 c7 -7 12 -21 12 -32 0 -17 4 -15 21 12 22
33 46 41 67 20 9 -9 15 -9 24 0 20 20 46 14 61 -14 l14 -26 17 27 c12 18 24
25 39 23 31 -4 33 -39 3 -86 -14 -22 -26 -59 -28 -83 -2 -33 -8 -45 -21 -47
-29 -6 -47 17 -47 61 0 36 -32 107 -48 107 -9 0 -52 -43 -52 -52 0 -5 12 -25
26 -44 27 -35 27 -60 -2 -71 -12 -4 -26 4 -45 25 -26 29 -28 29 -31 10 -4 -30
-32 -45 -52 -29 -13 11 -16 34 -16 106 0 50 3 95 7 98 10 11 38 8 51 -5z m356
-4 c3 -9 6 -42 6 -75 0 -56 1 -59 24 -59 13 0 27 -6 29 -12 3 -7 6 21 6 63 1
81 13 104 48 97 16 -3 18 -15 18 -108 0 -96 -2 -105 -19 -108 -11 -2 -25 3
-32 12 -10 14 -13 15 -24 1 -15 -18 -91 -20 -108 -3 -7 7 -12 44 -12 98 0 54
5 91 12 98 17 17 45 15 52 -4z m234 -15 l29 -31 22 31 c12 17 30 31 40 31 33
0 41 -22 41 -116 0 -85 -2 -93 -20 -99 -31 -10 -50 12 -50 58 0 32 -3 38 -12
29 -16 -16 -45 -15 -51 1 -3 6 -6 -4 -6 -24 -1 -43 -21 -72 -47 -67 -17 3 -19
13 -22 97 -1 52 -1 100 2 108 9 23 44 14 74 -18z m210 15 c8 -14 10 -14 21 0
18 22 133 22 151 1 16 -19 6 -45 -20 -52 -16 -4 -20 -15 -22 -71 -2 -47 -7
-68 -20 -75 -31 -20 -48 8 -48 79 0 42 -4 64 -12 64 -6 0 -19 7 -28 15 -16 14
-17 10 -16 -57 1 -40 -2 -81 -6 -90 -12 -26 -47 -22 -56 5 -9 25 -6 172 3 187
10 15 43 12 53 -6z m319 2 c4 -8 6 -56 3 -108 -4 -80 -8 -93 -24 -96 -10 -2
-22 0 -28 6 -11 11 -14 185 -3 201 9 16 43 13 52 -3z m102 -27 l30 -40 3 38
c3 33 6 38 28 38 l25 0 0 -105 c0 -99 -1 -105 -21 -108 -15 -2 -29 9 -50 39
l-29 43 -5 -40 c-4 -34 -8 -39 -30 -39 -25 0 -25 1 -28 94 -1 52 -1 100 2 108
10 26 46 13 75 -28z m183 7 l23 -34 10 31 c8 25 16 32 35 32 l25 0 0 -105 c0
-100 -1 -105 -22 -108 -16 -2 -29 7 -50 39 l-28 43 -5 -40 c-4 -34 -8 -39 -30
-39 -25 0 -25 1 -28 94 -1 52 -1 100 2 108 10 25 45 14 68 -21z m282 23 c27
-13 56 -64 56 -99 0 -29 -26 -76 -52 -94 -12 -9 -42 -16 -66 -16 -70 0 -125
69 -108 136 12 46 59 84 105 84 22 0 51 -5 65 -11z m110 -11 c8 -13 18 -35 21
-50 10 -39 21 -35 37 14 16 46 37 65 62 55 25 -10 20 -39 -24 -133 -34 -74
-42 -85 -62 -82 -31 4 -108 179 -88 203 18 21 37 19 54 -7z m280 -75 c32 -77
37 -95 26 -108 -18 -21 -47 -19 -55 5 -4 14 -15 20 -35 20 -19 0 -33 -7 -40
-20 -14 -25 -46 -26 -59 -1 -8 15 -1 38 34 111 39 78 48 91 67 88 18 -2 31
-23 62 -95z m166 82 c11 -14 14 -13 24 1 7 9 21 14 32 12 17 -3 19 -12 19
-108 0 -93 -2 -105 -18 -108 -35 -7 -47 16 -47 93 l0 73 -25 -11 c-23 -11 -25
-18 -25 -73 0 -67 -14 -90 -50 -79 -18 6 -20 15 -20 76 0 52 -3 69 -14 69 -21
0 -38 27 -31 50 6 18 15 20 74 20 49 0 72 -4 81 -15z m409 -26 l30 -40 3 38
c3 43 32 58 55 27 18 -24 18 -164 0 -188 -18 -25 -48 -14 -72 26 l-19 33 -6
-29 c-7 -37 -32 -55 -54 -37 -12 10 -16 33 -16 96 0 46 3 90 6 99 11 28 43 17
73 -25z m258 25 c10 -27 -11 -49 -53 -55 l-39 -6 34 -2 c47 -2 71 -26 71 -72
0 -48 -27 -69 -91 -69 -50 0 -73 16 -67 47 2 13 16 20 53 24 32 4 39 6 20 7
-50 3 -75 27 -75 72 0 50 27 70 93 70 35 0 49 -4 54 -16z"/>
<path d="M2520 2847 c-20 -7 -43 -25 -55 -44 -13 -21 -25 -30 -35 -26 -31 12
-60 15 -85 9 -28 -7 -65 -59 -65 -90 0 -11 -11 -31 -24 -45 -38 -40 -38 -100
-1 -136 42 -43 55 -34 55 40 l0 65 185 0 185 0 0 -65 c0 -39 4 -65 11 -65 41
0 81 63 72 112 -3 16 -21 41 -39 58 -27 23 -34 37 -34 65 0 54 -25 94 -73 116
-49 22 -51 22 -97 6z"/>
<path d="M2340 2500 l0 -90 155 0 155 0 0 90 0 90 -155 0 -155 0 0 -90z m251
13 c31 -6 35 -13 17 -31 -8 -8 -8 -15 1 -26 14 -17 -2 -31 -26 -22 -8 4 -21 1
-29 -5 -10 -8 -16 1 -28 42 -20 66 -21 62 10 55 15 -4 39 -10 55 -13z"/>
<path d="M2493 2372 c-203 -3 -218 -7 -175 -45 16 -14 44 -17 179 -17 145 0
162 2 177 19 39 43 23 46 -181 43z"/>
<path d="M3569 1509 c-24 -24 -24 -34 1 -59 16 -16 25 -18 40 -10 26 14 33 27
26 54 -8 32 -42 40 -67 15z"/>
<path d="M2752 1514 c-12 -8 -22 -24 -22 -34 0 -10 10 -26 22 -34 19 -13 25
-14 43 -2 11 7 20 24 20 36 0 12 -9 29 -20 36 -18 12 -24 11 -43 -2z"/>
</g>
</svg>
